HIERARCHY
ROOT Hips
{
    OFFSET 0.000000 0.000000 0.000000
    CHANNELS 6 Xposition Yposition Zposition Zrotation Xrotation Yrotation
    JOINT Spine
    {
        OFFSET -0.000000 8.603107 0.000000
        CHANNELS 3 Zrotation Xrotation Yrotation
        JOINT Spine1
        {
            OFFSET -0.000000 23.906662 0.000000
            CHANNELS 3 Zrotation Xrotation Yrotation
            JOINT Neck
            {
                OFFSET -0.000000 23.808481 2.164407
                CHANNELS 3 Zrotation Xrotation Yrotation
                JOINT Head
                {
                    OFFSET -0.000000 14.688231 -2.098319
                    CHANNELS 3 Zrotation Xrotation Yrotation
                    End Site
                    {
                        OFFSET -0.000000 26.228985 0.000000
                    }
                }
            }
            JOINT LeftShoulder
            {
                OFFSET 4.178941 22.658146 -0.129871
                CHANNELS 3 Zrotation Xrotation Yrotation
                JOINT LeftArm
                {
                    OFFSET 9.497952 0.000000 0.000000
                    CHANNELS 3 Zrotation Xrotation Yrotation
                    JOINT LeftForeArm
                    {
                        OFFSET 38.855015 0.000000 0.000000
                        CHANNELS 3 Zrotation Xrotation Yrotation
                        JOINT LeftHand
                        {
                            OFFSET 24.940550 0.000000 0.000000
                            CHANNELS 3 Zrotation Xrotation Yrotation
                            End Site
                            {
                                OFFSET 15.737392 0.000000 0.000000
                            }
                        }
                    }
                }
            }
            JOINT RightShoulder
            {
                OFFSET -4.145384 22.658146 -0.129871
                CHANNELS 3 Zrotation Xrotation Yrotation
                JOINT RightArm
                {
                    OFFSET -9.497952 0.000000 0.000000
                    CHANNELS 3 Zrotation Xrotation Yrotation
                    JOINT RightForeArm
                    {
                        OFFSET -38.855015 0.000000 0.000000
                        CHANNELS 3 Zrotation Xrotation Yrotation
                        JOINT RightHand
                        {
                            OFFSET -24.940550 0.000000 0.000000
                            CHANNELS 3 Zrotation Xrotation Yrotation
                            End Site
                            {
                                OFFSET -15.737392 0.000000 0.000000
                            }
                        }
                    }
                }
            }
        }
    }
    JOINT LeftUpLeg
    {
        OFFSET 10.491594 0.000000 0.000000
        CHANNELS 3 Zrotation Xrotation Yrotation
        JOINT LeftLeg
        {
            OFFSET -0.000000 -46.080647 0.000000
            CHANNELS 3 Zrotation Xrotation Yrotation
            JOINT LeftFoot
            {
                OFFSET -0.000000 -50.184704 0.000000
                CHANNELS 3 Zrotation Xrotation Yrotation
                JOINT LeftToeBase
                {
                    OFFSET -0.000000 -6.819536 15.737392
                    CHANNELS 3 Zrotation Xrotation Yrotation
                    End Site
                    {
                        OFFSET -0.000000 0.000000 4.196638
                    }
                }
            }
        }
    }
    JOINT RightUpLeg
    {
        OFFSET -10.491594 0.000000 0.000000
        CHANNELS 3 Zrotation Xrotation Yrotation
        JOINT RightLeg
        {
            OFFSET -0.000000 -46.080647 0.000000
            CHANNELS 3 Zrotation Xrotation Yrotation
            JOINT RightFoot
            {
                OFFSET -0.000000 -50.184704 0.000000
                CHANNELS 3 Zrotation Xrotation Yrotation
                JOINT RightToeBase
                {
                    OFFSET -0.000000 -6.819536 15.737392
                    CHANNELS 3 Zrotation Xrotation Yrotation
                    End Site
                    {
                        OFFSET -0.000000 0.000000 4.196638
                    }
                }
            }
        }
    }
}
MOTION
Frames:    11
Frame Time:    0.008333
55.730366    101.089981    34.430187    -5.383620    -2.178737    88.857399    -1.449996    -5.796951    0.121683    2.184452    8.473063    0.033293    8.249599    7.283408    3.591004    -4.757339    -16.479454    1.706777    -5.409529    10.377245    -17.876665    -38.085205    38.177990    -26.375357    6.077588    -14.249910    -32.187386    -10.068256    -12.958014    4.835912    10.412738    9.952409    -4.912281    22.402521    59.285461    43.538307    -0.054020    -21.790468    21.757896    -6.508065    -21.728680    -0.980798    1.233504    -7.652983    0.868934    -4.051124    21.309818    -4.813011    3.922616    -19.912903    11.188617    0.000000    0.000000    0.000000    2.603511    -24.639191    -4.076172    3.715822    6.385756    -6.702000    17.872810    10.151852    -7.365079    0.000000    0.000000    0.000000    
54.979427    101.319336    34.331375    -5.408289    -2.079796    88.868027    -1.354879    -5.764181    0.099663    1.879521    8.544293    0.027503    7.858083    6.997917    3.594230    -4.081208    -16.336294    1.918042    -5.375718    10.398399    -17.711306    -37.883331    38.344574    -26.408587    6.010049    -14.312284    -32.329678    -10.048150    -13.039252    4.931229    10.441007    10.104278    -4.743266    23.659029    58.648849    42.499367    0.221270    -21.901196    21.678869    -6.845440    -21.890995    -0.885816    1.125169    -8.126268    1.307548    -3.918437    21.234560    -4.969890    3.430286    -19.092628    10.707276    0.000000    0.000000    0.000000    2.196202    -24.874281    -4.092153    3.888981    7.371182    -6.253402    16.570026    8.771806    -7.226787    0.000000    0.000000    0.000000    
54.258312    101.550186    34.234318    -5.418473    -2.111990    88.874931    -1.149378    -5.651854    0.213077    1.537425    8.441475    0.156448    8.363725    6.781362    3.576350    -4.674472    -16.108364    1.681715    -5.093239    10.539220    -17.885466    -37.892441    38.423943    -26.489246    6.171147    -14.416369    -32.237793    -10.637804    -13.109209    4.719382    10.728561    10.072473    -4.963254    24.355507    58.444546    41.699471    0.270524    -21.886854    21.494198    -6.293818    -21.926851    -0.142774    1.097942    -8.526672    1.912267    -3.649202    21.133633    -5.602890    3.115651    -18.331896    10.619945    0.000000    0.000000    0.000000    1.926683    -25.096886    -4.149454    3.892034    8.356215    -5.855531    16.864683    7.899233    -7.153955    0.000000    0.000000    0.000000    
53.597229    101.787880    34.149437    -5.266466    -2.242665    88.782600    -0.754094    -5.486726    0.235306    1.209951    8.446285    0.182303    8.258555    6.646681    3.633056    -4.611079    -15.939616    1.764140    -5.047589    10.452591    -17.615532    -37.782753    38.877792    -26.489639    6.066967    -14.168075    -32.291599    -10.211153    -12.890488    4.969082    10.588387    10.100993    -4.706995    25.565371    58.221664    40.757893    0.190334    -22.146578    21.273613    -5.960804    -22.176090    -0.067576    1.159372    -8.597607    2.191163    -3.515860    20.793468    -5.807823    2.900775    -17.600100    10.621887    0.000000    0.000000    0.000000    1.849473    -25.008917    -4.098725    3.906232    9.310061    -5.706384    16.259241    7.098484    -7.059533    0.000000    0.000000    0.000000    
52.917194    101.998055    34.065842    -5.233277    -2.470219    88.725128    -0.318216    -5.446136    0.289266    0.969851    8.459214    0.232838    8.088885    6.339695    3.643767    -4.325533    -15.618550    1.858814    -4.878285    10.403393    -17.506241    -37.989632    39.063122    -26.457058    6.083326    -14.014072    -32.131393    -10.668512    -12.721548    4.552449    10.498273    10.132493    -4.722089    26.278141    57.989838    40.183624    0.530526    -22.422409    21.352316    -6.866371    -22.491039    -0.423792    1.239645    -8.796206    2.420676    -3.258511    20.459641    -6.028505    2.736534    -16.950010    10.658875    0.000000    0.000000    0.000000    1.894609    -24.987188    -4.053059    3.854441    10.373440    -5.328427    15.764499    6.366064    -7.346638    0.000000    0.000000    0.000000    
52.292080    102.204933    33.998508    -5.092176    -2.796425    88.642342    0.179339    -5.282818    0.371712    0.787490    8.351097    0.305949    8.359136    6.176034    3.722071    -4.830511    -15.340037    1.775482    -4.753032    10.369785    -17.461103    -38.248318    39.396336    -26.279167    6.170386    -13.805618    -32.068451    -10.961237    -12.505039    4.579549    10.394962    10.093276    -4.757010    27.055872    57.961292    39.466736    0.687644    -22.742378    21.398014    -6.940119    -22.836977    -0.444523    1.416974    -8.727598    2.630773    -3.005630    19.901886    -6.090219    2.671691    -16.376751    10.578679    0.000000    0.000000    0.000000    2.026019    -24.782522    -3.912122    3.924955    11.453376    -5.406184    15.396101    5.871812    -7.559286    0.000000    0.000000    0.000000    
51.644920    102.396835    33.913898    -4.997952    -3.129154    88.619446    0.734366    -5.025986    0.372876    0.551138    7.960442    0.302447    8.244120    6.061125    3.763288    -4.620961    -14.881846    1.895498    -4.679970    10.537223    -17.392723    -38.589638    39.566906    -25.976116    6.106798    -13.623265    -32.058685    -11.159177    -12.369923    4.809444    10.361979    10.225979    -4.675031    27.791220    57.833546    38.693283    0.745047    -23.062017    21.458883    -6.644905    -23.155312    -0.678284    1.569212    -8.715896    2.694010    -2.769962    19.333046    -6.183629    2.694109    -15.814100    10.652204    0.000000    0.000000    0.000000    2.111729    -24.667131    -3.873077    3.930305    12.648854    -5.449385    15.148630    5.550284    -7.632123    0.000000    0.000000    0.000000    
51.068123    102.581047    33.848412    -4.829299    -3.438216    88.522232    0.960653    -4.903836    0.498501    0.752601    7.886809    0.405521    8.633124    5.813402    3.758803    -5.308150    -14.409883    1.670944    -4.520110    10.526844    -17.588932    -39.315273    39.603775    -25.559607    6.297744    -13.242140    -32.014603    -11.784049    -11.978426    4.976284    10.254106    10.111537    -4.923708    28.087643    57.964237    38.206596    0.804518    -23.240704    21.598572    -5.998670    -23.357916    -0.486163    1.746651    -8.485292    2.684976    -2.644514    18.603985    -6.056681    2.737080    -15.264515    10.658928    0.000000    0.000000    0.000000    2.250393    -24.408154    -4.124234    3.940925    14.106819    -5.304333    14.710816    4.813239    -7.798939    0.000000    0.000000    0.000000    
50.481762    102.742172    33.781410    -4.675985    -3.753017    88.458542    1.376815    -4.684268    0.544212    0.632029    7.574502    0.446110    8.733845    5.648095    3.770230    -5.267334    -13.882628    1.694154    -4.425809    10.500429    -17.694599    -40.020397    39.796005    -24.885050    6.413140    -12.899445    -31.942715    -12.456813    -11.635663    4.984485    10.340692    10.114958    -4.947384    28.371372    58.130444    37.631779    1.069666    -23.707705    21.945265    -6.183130    -23.845707    -1.040852    1.960096    -8.232062    2.361109    -2.663067    17.777266    -5.672719    2.882151    -14.732898    10.697654    0.000000    0.000000    0.000000    2.367090    -24.137669    -3.965429    3.972992    15.456450    -5.542731    13.982860    4.302272    -7.794552    0.000000    0.000000    0.000000    
49.922989    102.881775    33.710327    -4.499865    -3.981893    88.436714    1.488423    -4.401244    0.526907    0.945640    7.119563    0.410978    8.851462    5.627836    3.822200    -5.656407    -13.446776    1.654415    -4.522318    10.695457    -17.710524    -40.746773    39.763859    -24.265215    6.285299    -12.635628    -32.031883    -12.239153    -11.417393    5.225984    10.134164    10.192446    -4.993937    28.640104    58.303429    37.142891    1.110859    -23.924044    22.141672    -5.094149    -24.090759    -0.774919    2.101822    -7.878945    1.925509    -2.729951    16.832376    -5.238753    3.030908    -14.156583    10.739741    0.000000    0.000000    0.000000    2.340473    -23.804384    -3.672245    4.177390    16.922539    -5.670519    13.328904    3.421802    -8.048219    0.000000    0.000000    0.000000    
49.337353    103.005096    33.645020    -4.425002    -4.150545    88.377213    1.497157    -4.292351    0.532848    1.331880    6.797771    0.397732    8.794274    5.390369    3.844805    -5.759017    -12.843703    1.667594    -4.631129    10.822679    -17.645193    -41.276165    39.953094    -23.801991    6.223978    -12.448493    -32.078163    -12.610803    -11.239578    5.029821    9.861785    10.232027    -5.105933    28.833191    58.461792    36.824715    1.050115    -24.000114    22.316195    -4.482766    -24.159014    -0.835579    2.217719    -7.622903    1.445500    -2.838578    15.867903    -4.765798    3.246060    -13.610608    10.817608    0.000000    0.000000    0.000000    2.316103    -23.588291    -3.411226    4.285788    18.535749    -6.118667    12.710634    2.458302    -7.927557    0.000000    0.000000    0.000000    
